<svg xmlns="http://www.w3.org/2000/svg" xmlns:xlink="http://www.w3.org/1999/xlink" width="13" height="12" viewBox="0 0 13 12">
    <defs>
        <path id="a" d="M.464 2.09h12.072A.464.464 0 0 0 13 1.624V.465A.464.464 0 0 0 12.536 0H.464A.464.464 0 0 0 0 .464v1.161c0 .256.208.464.464.464zM.357 6.731h9.286c.197 0 .357-.208.357-.464v-1.16c0-.257-.16-.465-.357-.465H.357C.16 4.643 0 4.85 0 5.107v1.16c0 .257.16.465.357.465zm.107 4.643h12.072a.464.464 0 0 0 .464-.464V9.75a.464.464 0 0 0-.464-.464H.464A.464.464 0 0 0 0 9.75v1.16c0 .257.208.465.464.465z"/>
    </defs>
    <use fill="#494948" fill-rule="nonzero" xlink:href="#a"/>
</svg>
