<svg xmlns="http://www.w3.org/2000/svg" xmlns:xlink="http://www.w3.org/1999/xlink" width="21" height="21" viewBox="0 0 21 21">
    <defs>
        <path id="a" d="M16.338 10.819l1.425.71c.427.245.613.765.444 1.23-.376 1.023-1.116 1.96-1.802 2.78-.313.377-.854.47-1.281.225l-1.23-.71a7.266 7.266 0 0 1-2.323 1.34v1.42c0 .49-.35.913-.833.997a9.517 9.517 0 0 1-3.21 0 1.016 1.016 0 0 1-.845-.997v-1.42a7.346 7.346 0 0 1-2.322-1.34l-1.231.706a1.012 1.012 0 0 1-1.281-.224c-.686-.82-1.409-1.759-1.785-2.777-.17-.46.017-.98.444-1.23l1.408-.71a7.318 7.318 0 0 1 0-2.68L.508 7.425a1.008 1.008 0 0 1-.444-1.226c.376-1.023 1.1-1.961 1.785-2.78.313-.377.854-.47 1.281-.225l1.23.71a7.266 7.266 0 0 1 2.323-1.34V1.14c0-.486.346-.909.828-.993a9.65 9.65 0 0 1 3.215-.005c.486.085.845.503.845.998v1.42c.859.304 1.646.76 2.322 1.34l1.23-.71a1.012 1.012 0 0 1 1.282.224c.686.82 1.404 1.758 1.78 2.78.17.462.005.981-.422 1.23l-1.425.71a7.34 7.34 0 0 1 0 2.685zm-4.974.892c2.504-3.255-1.214-6.97-4.47-4.468-2.504 3.255 1.214 6.97 4.47 4.468z"/>
    </defs>
    <use fill="none" fill-rule="nonzero" stroke="#636363" stroke-width="1.8" transform="translate(1 1)" xlink:href="#a"/>
</svg>
