<svg xmlns="http://www.w3.org/2000/svg" xmlns:xlink="http://www.w3.org/1999/xlink" width="18" height="16" viewBox="0 0 18 16">
    <defs>
        <path id="a" d="M12.417 10.643l.988-.987a.248.248 0 0 1 .422.176v4.486c0 .817-.663 1.48-1.481 1.48H1.482A1.482 1.482 0 0 1 0 14.319V3.458c0-.818.664-1.481 1.482-1.481h8.441c.22 0 .33.265.176.423l-.988.987a.245.245 0 0 1-.176.07H1.482v10.86h10.864v-3.501c0-.065.025-.127.07-.173zm4.833-6.226L9.145 12.52l-2.79.309a1.275 1.275 0 0 1-1.407-1.407l.308-2.79L13.361.53a1.802 1.802 0 0 1 2.553 0l1.333 1.333c.707.706.707 1.85.003 2.554zm-3.05.954l-1.792-1.793-5.735 5.735-.225 2.015 2.015-.225 5.738-5.732zm2.001-2.46L14.868 1.58a.322.322 0 0 0-.457 0l-.954.953 1.793 1.793.954-.954a.329.329 0 0 0-.003-.46z"/>
    </defs>
    <use fill="#636363" fill-rule="nonzero" transform="translate(0 -.023)" xlink:href="#a"/>
</svg>
