<svg xmlns="http://www.w3.org/2000/svg" width="14" height="14" viewBox="0 0 14 14">
    <path fill="#B4B4B4" fill-rule="evenodd" d="M7.806.83v1.765c0 .453-.368.83-.81.83-.434 0-.809-.377-.809-.83V.83c0-.447.375-.83.81-.83.441 0 .81.383.81.83zM3.201 4.462l-1.159-1.2c-.3-.308-.3-.855.012-1.176.307-.307.834-.295 1.14.02l1.16 1.193c.3.315.3.855-.012 1.176a.814.814 0 0 1-1.14-.013zm6.42-1.138l1.166-1.2c.306-.314.834-.327 1.134-.019.313.32.319.868.019 1.175l-1.166 1.2c-.306.315-.84.321-1.14.013-.313-.32-.32-.86-.012-1.169zm.657 9.653c.153.334.043.673-.215.786l-.546.201c-.239.113-.52-.05-.662-.364l-.914-2.332-.76.874c-.264.308-.711.138-.7-.27l.087-5.236c.018-.377.392-.527.65-.264l3.618 3.74c.263.283.086.71-.3.685L9.32 10.72l.957 2.256zM.809 6.335h1.724a.83.83 0 0 1 .815.823c0 .453-.374.83-.815.83H.809a.827.827 0 0 1 0-1.653zm12.382 1.653h-1.73c-.435 0-.803-.377-.803-.83 0-.446.368-.823.803-.823h1.73a.83.83 0 0 1 .809.823c0 .453-.374.83-.81.83zM2.06 11.023l1.17-1.188c.301-.314.835-.308 1.141.013.3.314.3.854-.012 1.169L3.19 12.204c-.3.315-.834.308-1.14-.012a.858.858 0 0 1 .011-1.169z"/>
</svg>
