<svg xmlns="http://www.w3.org/2000/svg" width="15" height="14" viewBox="0 0 15 14">
    <path fill="#5482CB" fill-rule="evenodd" d="M7.741 14c-3.848 0-7-3.152-7-7s3.152-7 7-7 7 3.152 7 7-3.152 7-7 7zM5.807 4.043c.46.076.953.132 1.468.146V2.074c-.578.27-1.1 1.002-1.468 1.969zm2.4-1.97V4.19c.515-.014 1.01-.07 1.469-.146-.37-.967-.891-1.698-1.469-1.97zm1.775.46c.25.376.466.807.64 1.294.271-.083.522-.174.738-.278a4.982 4.982 0 0 0-1.378-1.016zm-5.86 1.016c.217.104.467.195.738.278.174-.487.39-.925.64-1.294a4.981 4.981 0 0 0-1.377 1.016zm7.015 2.978h1.58a4.963 4.963 0 0 0-.78-2.24c-.3.16-.654.305-1.05.424.139.563.222 1.169.25 1.816zm-8.37 0h1.579a9.222 9.222 0 0 1 .25-1.816 5.692 5.692 0 0 1-1.05-.425 4.963 4.963 0 0 0-.78 2.24zm5.44 0h1.977a8.3 8.3 0 0 0-.237-1.587c-.536.098-1.127.167-1.74.188v1.399zm-2.908 0h1.976V5.128c-.612-.02-1.204-.09-1.747-.188a8.8 8.8 0 0 0-.23 1.587zm-2.533.932a4.97 4.97 0 0 0 .786 2.269c.3-.16.654-.3 1.044-.418a9.652 9.652 0 0 1-.257-1.85H2.766zm2.533 0a8.59 8.59 0 0 0 .23 1.622 11.38 11.38 0 0 1 1.746-.188V7.459H5.299zm2.908 1.434c.613.02 1.204.083 1.74.188a8.585 8.585 0 0 0 .237-1.622H8.207v1.434zm2.68.417c.389.118.744.258 1.043.418a4.97 4.97 0 0 0 .786-2.269h-1.572a9.652 9.652 0 0 1-.258 1.851zm-2.68.515v2.115c.578-.264 1.1-.995 1.469-1.969-.46-.076-.954-.125-1.469-.146zm-2.4.146c.362.974.89 1.705 1.468 1.97V9.824c-.522.02-1.016.07-1.468.146zm4.815.223a6.127 6.127 0 0 1-.62 1.266c.502-.257.96-.598 1.35-1.002a5.947 5.947 0 0 0-.73-.264zm-6.485.264a4.75 4.75 0 0 0 1.343.995 5.908 5.908 0 0 1-.626-1.26 5.715 5.715 0 0 0-.717.265z"/>
</svg>
