<svg xmlns="http://www.w3.org/2000/svg" width="19" height="13" viewBox="0 0 19 13">
    <path fill="#B3B3B3" fill-rule="evenodd" d="M14.8 12.373c-1.183 0-1.88-.718-1.88-1.852V1.859C12.92.711 13.617 0 14.8 0h1.572c1.19 0 1.887.71 1.887 1.853v8.668c0 1.134-.697 1.852-1.887 1.852H14.8zm-6.46 0c-1.183 0-1.88-.718-1.88-1.852V3.732c0-1.141.697-1.852 1.88-1.852h1.579c1.183 0 1.88.71 1.88 1.852v6.789c0 1.134-.697 1.852-1.88 1.852h-1.58zm-6.453 0C.704 12.373 0 11.655 0 10.521V5.646c0-1.148.704-1.859 1.887-1.859h1.572c1.19 0 1.887.711 1.887 1.853v4.88c0 1.135-.698 1.853-1.887 1.853H1.887z"/>
</svg>
