<svg xmlns="http://www.w3.org/2000/svg" width="15" height="17" viewBox="0 0 15 17">
    <path fill="#5482CB" fill-rule="evenodd" d="M3.572 1.08C3.625.395 4.05 0 4.735 0h6.04c.684 0 1.11.395 1.162 1.08H3.572zm-1.25 2.2c.08-.719.466-1.17 1.263-1.17h8.332c.804 0 1.19.451 1.263 1.17H2.323zm.751 13.265c-1.488 0-2.332-.896-2.332-2.469V6.9c0-1.573.844-2.47 2.332-2.47h9.336c1.488 0 2.332.897 2.332 2.47v7.176c0 1.573-.844 2.47-2.332 2.47H3.073zm.253-2.01h.531a4.563 4.563 0 0 1 3.88-2.138c1.748 0 3.164.96 3.888 2.138h.531c.452 0 .692-.226.692-.741V7.183c0-.515-.24-.734-.692-.734h-8.83c-.452 0-.684.219-.684.734v6.61c0 .516.232.742.684.742zm4.412-2.957c-1.023 0-1.84-.96-1.84-2.13 0-1.122.823-2.089 1.84-2.089 1.023 0 1.84.967 1.84 2.088 0 1.179-.81 2.138-1.84 2.131z"/>
</svg>
