<svg xmlns="http://www.w3.org/2000/svg" width="14" height="13" viewBox="0 0 14 13">
    <path fill="#B4B4B4" fill-rule="evenodd" d="M9.61 4.052c-.764 0-1.429-.452-1.75-1.114H.851C.382 2.938 0 2.5 0 2.026c0-.487.376-.905.852-.905H7.86C8.181.46 8.846 0 9.611 0c.758 0 1.423.46 1.745 1.121h1.805c.47 0 .839.41.839.905 0 .48-.37.912-.839.912h-1.805A1.952 1.952 0 0 1 9.61 4.052zm0-1.107c.504 0 .887-.41.887-.919 0-.522-.383-.919-.886-.919a.899.899 0 0 0-.893.92c0 .507.403.918.893.918zM.847 5.46h1.892c.322-.662.98-1.121 1.745-1.121.759 0 1.423.46 1.745 1.12h6.926c.477 0 .846.411.846.906 0 .48-.37.905-.846.905H6.228c-.329.668-.993 1.12-1.745 1.12-.765 0-1.43-.452-1.751-1.12H.846C.383 7.269 0 6.837 0 6.364c0-.488.376-.905.846-.905zm3.637 1.824c.504 0 .886-.411.886-.92 0-.522-.382-.918-.886-.918a.899.899 0 0 0-.892.919c0 .508.402.919.892.919zm5.128 5.444c-.765 0-1.43-.452-1.752-1.12H.852c-.47 0-.852-.44-.852-.906 0-.487.376-.905.852-.905H7.86a1.948 1.948 0 0 1 1.752-1.12c.765 0 1.423.452 1.745 1.12h1.805c.47 0 .839.404.839.905 0 .48-.37.905-.839.905h-1.805c-.322.669-.987 1.121-1.745 1.121zm0-1.107c.503 0 .886-.41.886-.919 0-.522-.383-.919-.886-.919a.899.899 0 0 0-.893.92c0 .507.403.918.893.918z"/>
</svg>
