<svg xmlns="http://www.w3.org/2000/svg" width="19" height="13" viewBox="0 0 19 13">
    <path fill="#5482CB" fill-rule="evenodd" d="M15.541 12.373c-1.183 0-1.88-.718-1.88-1.852V1.859c0-1.148.697-1.859 1.88-1.859h1.572C18.303 0 19 .71 19 1.853v8.668c0 1.134-.697 1.852-1.887 1.852h-1.572zm-6.46 0c-1.183 0-1.88-.718-1.88-1.852V3.732c0-1.141.697-1.852 1.88-1.852h1.58c1.182 0 1.879.71 1.879 1.852v6.789c0 1.134-.697 1.852-1.88 1.852H9.081zm-6.453 0c-1.183 0-1.887-.718-1.887-1.852V5.646c0-1.148.704-1.859 1.887-1.859H4.2c1.19 0 1.887.711 1.887 1.853v4.88c0 1.135-.697 1.853-1.887 1.853H2.628z"/>
</svg>
