<svg xmlns="http://www.w3.org/2000/svg" width="14" height="17" viewBox="0 0 14 17">
    <path fill="#B4B4B4" fill-rule="evenodd" d="M2.83 1.08C2.885.395 3.31 0 3.994 0h6.04c.685 0 1.11.395 1.163 1.08H2.831zm-1.249 2.2c.08-.719.466-1.17 1.263-1.17h8.332c.804 0 1.19.451 1.263 1.17H1.58zm.751 13.265C.844 16.545 0 15.65 0 14.076V6.9c0-1.573.844-2.47 2.332-2.47h9.336C13.156 4.43 14 5.328 14 6.9v7.176c0 1.573-.844 2.47-2.332 2.47H2.332zm.253-2.01h.531a4.563 4.563 0 0 1 3.88-2.138c1.748 0 3.163.96 3.888 2.138h.531c.452 0 .691-.226.691-.741V7.183c0-.515-.239-.734-.69-.734H2.584c-.452 0-.685.219-.685.734v6.61c0 .516.233.742.685.742zm4.412-2.957c-1.024 0-1.84-.96-1.84-2.13 0-1.122.823-2.089 1.84-2.089 1.023 0 1.84.967 1.84 2.088 0 1.179-.81 2.138-1.84 2.131z"/>
</svg>
