<svg xmlns="http://www.w3.org/2000/svg" width="15" height="14" viewBox="0 0 15 14">
    <path fill="#5482CB" fill-rule="evenodd" d="M8.548.83v1.765c0 .453-.368.83-.81.83-.435 0-.81-.377-.81-.83V.83c0-.447.375-.83.81-.83.442 0 .81.383.81.83zM3.942 4.462l-1.159-1.2c-.3-.308-.3-.855.013-1.176.306-.307.834-.295 1.14.02l1.16 1.193c.3.315.3.855-.013 1.176a.814.814 0 0 1-1.14-.013zm6.42-1.138l1.166-1.2c.307-.314.834-.327 1.134-.019.313.32.32.868.019 1.175l-1.165 1.2c-.307.315-.84.321-1.141.013-.313-.32-.319-.86-.012-1.169zm.657 9.653c.153.334.043.673-.215.786l-.545.201c-.24.113-.522-.05-.663-.364l-.913-2.332-.76.874c-.265.308-.712.138-.7-.27l.086-5.236c.018-.377.392-.527.65-.264l3.618 3.74c.264.283.086.71-.3.685l-1.215-.076.957 2.256zM1.55 6.335h1.723a.83.83 0 0 1 .815.823c0 .453-.374.83-.815.83H1.55a.827.827 0 0 1 0-1.653zm12.38 1.653h-1.729c-.435 0-.803-.377-.803-.83 0-.446.368-.823.803-.823h1.73a.83.83 0 0 1 .81.823c0 .453-.375.83-.81.83zm-11.13 3.035l1.172-1.188c.3-.314.834-.308 1.14.013.301.314.301.854-.012 1.169L3.93 12.204c-.3.315-.834.308-1.14-.012a.858.858 0 0 1 .012-1.169z"/>
</svg>
