<svg xmlns="http://www.w3.org/2000/svg" width="15" height="13" viewBox="0 0 15 13">
    <path fill="#5482CB" fill-rule="evenodd" d="M10.352 4.052c-.765 0-1.43-.452-1.752-1.114H1.594c-.47 0-.853-.439-.853-.912 0-.487.376-.905.853-.905H8.6C8.922.46 9.587 0 10.352 0c.758 0 1.423.46 1.745 1.121h1.805c.47 0 .84.41.84.905 0 .48-.37.912-.84.912h-1.805a1.952 1.952 0 0 1-1.745 1.114zm0-1.107c.503 0 .886-.41.886-.919 0-.522-.383-.919-.886-.919a.899.899 0 0 0-.893.92c0 .507.403.918.893.918zM1.587 5.46h1.892c.323-.662.98-1.121 1.745-1.121.759 0 1.423.46 1.745 1.12h6.927c.476 0 .845.411.845.906 0 .48-.369.905-.845.905H6.969c-.328.668-.993 1.12-1.745 1.12-.765 0-1.43-.452-1.751-1.12H1.587c-.463 0-.846-.432-.846-.905 0-.488.376-.905.846-.905zm3.637 1.824c.504 0 .886-.411.886-.92 0-.522-.382-.918-.886-.918a.899.899 0 0 0-.892.919c0 .508.402.919.892.919zm5.128 5.444c-.765 0-1.43-.452-1.752-1.12H1.594c-.47 0-.853-.44-.853-.906 0-.487.376-.905.853-.905H8.6a1.948 1.948 0 0 1 1.752-1.12c.765 0 1.423.452 1.745 1.12h1.805c.47 0 .84.404.84.905 0 .48-.37.905-.84.905h-1.805c-.322.669-.987 1.121-1.745 1.121zm0-1.107c.503 0 .886-.41.886-.919 0-.522-.383-.919-.886-.919a.899.899 0 0 0-.893.92c0 .507.403.918.893.918z"/>
</svg>
