<svg xmlns="http://www.w3.org/2000/svg" xmlns:xlink="http://www.w3.org/1999/xlink" width="14" height="17" viewBox="0 0 14 17">
    <defs>
        <path id="a" d="M6 5.875v6.75a.375.375 0 0 1-.375.375h-.75a.375.375 0 0 1-.375-.375v-6.75c0-.207.168-.375.375-.375h.75c.207 0 .375.168.375.375zM9.125 5.5h-.75A.375.375 0 0 0 8 5.875v6.75c0 .207.168.375.375.375h.75a.375.375 0 0 0 .375-.375v-6.75a.375.375 0 0 0-.375-.375zm4.125-3a.75.75 0 0 1 .75.75v.375a.375.375 0 0 1-.375.375H13v10.5a1.5 1.5 0 0 1-1.5 1.5h-9A1.5 1.5 0 0 1 1 14.5V4H.375A.375.375 0 0 1 0 3.625V3.25a.75.75 0 0 1 .75-.75h2.325L4.138.728A1.5 1.5 0 0 1 5.425 0h3.15a1.5 1.5 0 0 1 1.287.728L10.925 2.5h2.325zm-8.425 0h4.35l-.545-.909a.188.188 0 0 0-.16-.091H5.53a.188.188 0 0 0-.16.091l-.545.909zM11.5 4h-9v10.313c0 .103.084.187.188.187h8.624a.187.187 0 0 0 .188-.188V4z"/>
    </defs>
    <use fill="#FF4D4F" fill-rule="nonzero" transform="translate(0 .977)" xlink:href="#a"/>
</svg>
